<?xml version="1.0" encoding="utf-8"?>
<!-- Svg Vector Icons : http://www.onlinewebfonts.com/icon -->
<!DOCTYPE svg PUBLIC "-//W3C//DTD SVG 1.1//EN" "http://www.w3.org/Graphics/SVG/1.1/DTD/svg11.dtd">
<svg version="1.1" xmlns="http://www.w3.org/2000/svg" xmlns:xlink="http://www.w3.org/1999/xlink" x="0px" y="0px" viewBox="0 0 256 256" enable-background="new 0 0 256 256" xml:space="preserve">
<metadata> Svg Vector Icons : http://www.onlinewebfonts.com/icon </metadata>
<g><g><path fill="#000000" d="M190.2,125.9h-33.9c-1.9,0-3.6,1.1-4.4,2.7L141,150.3l-13.9-60.1c-0.5-2.1-2.2-3.6-4.4-3.8c-2.1-0.1-4.1,1-5,3l-15.7,36.6H65.8c-2.7,0-4.9,2.2-4.9,4.9c0,2.7,2.2,4.9,4.9,4.9h39.6c2,0,3.8-1.2,4.5-3l11-25.7l13.6,58.8c0.5,2,2.2,3.5,4.2,3.8c0.2,0,0.4,0,0.6,0c1.9,0,3.6-1,4.4-2.7l15.6-31.2h30.9c2.7,0,4.9-2.2,4.9-4.9C195.1,128.1,192.9,125.9,190.2,125.9z"/><path fill="#000000" d="M173.2,21.3c-17.8,0-33.8,11.2-45.2,21c-11.3-9.7-27.4-21-45.2-21C42.7,21.3,10,53.9,10,94.1c0,92,111.4,138.3,116.1,140.3l0.8,0.3l0.9,0l0,0c2.3,0,42.3-17.4,74.2-48.3c29.1-28.2,43.9-59.2,43.9-92.3C246,53.9,213.3,21.3,173.2,21.3z M182.2,190.8c-23.7,19.3-47.6,30.7-54.3,33.6c-15-6.5-108.1-50.1-108.1-130.3c0-34.7,28.2-62.9,62.9-62.9c16.2,0,31.7,12.2,41.9,21.3l3.3,3l3.3-3c10.2-9.2,25.6-21.3,41.9-21.3c34.7,0,62.9,28.2,62.9,62.9C236.1,129.1,218,161.7,182.2,190.8z"/></g></g>
</svg>